<svg id="Layer_1" data-name="Layer 1" xmlns="http://www.w3.org/2000/svg" viewBox="0 0 500 500"><defs><linearGradient id="linear-gradient" x1="2373.03" y1="380.37" x2="2373.03" y2="154.69" gradientTransform="matrix(-1 0 0 1 2623.03 0)" gradientUnits="userSpaceOnUse"><stop offset="0" stop-color="#e3312d"/><stop offset=".18" stop-color="#e6007e"/><stop offset=".43" stop-color="#662483"/><stop offset=".64" stop-color="#1d71b8"/><stop offset=".85" stop-color="#2fac66"/><stop offset="1" stop-color="#ffee37"/></linearGradient><style>.cls-1{fill:none;stroke-linecap:round;stroke-miterlimit:10;stroke-width:9px;stroke:#1d1d1b}</style></defs><path class="cls-1" d="M204.61 343.67l-7.41-3.16a8.89 8.89 0 00-9.7 1.94l-18.32 18.32a9 9 0 01-12.74 0l-24.23-24.24a9 9 0 010-12.74l19.32-19.46a6.47 6.47 0 001.38-7l-9.24-22.17a8.92 8.92 0 00-8.23-5.49h-25.91a9 9 0 01-9-9v-34.32a9 9 0 019-9h26.44a9 9 0 008.24-5.39l9.08-20.84a8.93 8.93 0 00-1.94-9.71L133 163.13a9 9 0 010-12.74l24.24-24.23a9 9 0 0112.73 0l18.29 18A9 9 0 00198 146l20.73-8.64a8.79 8.79 0 005.41-8.12v-26a9 9 0 019-9h34.27a9 9 0 019 9l-.13 26.4a8.73 8.73 0 005.53 8.14l20.79 8.12a8.94 8.94 0 009.71-1.94l18.32-18.32a9 9 0 0112.73 0l24.24 24.23a9 9 0 010 12.74l-18.25 18.25a9 9 0 00-1.95 9.85l8.89 21.3a8.92 8.92 0 008.23 5.49h25.91a9 9 0 019 9v34.3c0 5-4 9-11.52 12.83l-23.72.12a9 9 0 00-8 5l-8.85 17.84a8.92 8.92 0 001.94 9.71l18.32 18.32a9 9 0 010 12.74l-24.2 24.23a9 9 0 01-12.73 0l-18.29-18.45a8.94 8.94 0 00-9.8-2l-5.86 2.44M220.74 387.31h58.52M231.27 405.75h37.46"/><path class="cls-1" d="M237.54 336.1v-32.45a5.54 5.54 0 00-2.94-4.9c-5.71-3-17.52-13.21-15.31-45.14M262.46 336.1v-32.45a5.54 5.54 0 012.94-4.9c5.71-3 17.52-13.21 15.31-45.14"/><path d="M207.4 375.87c4.51-22.7 4.11-41.24-13.34-57.39C172.79 298.79 161 275.1 161 248.22a89 89 0 11178.06 0c0 26.88-11.82 50.57-33.09 70.26-17.45 16.15-17.85 34.69-13.34 57.39" stroke="url(#linear-gradient)" fill="none" stroke-linecap="round" stroke-miterlimit="10" stroke-width="9"/><path class="cls-1" d="M231.27 368.87h37.46"/></svg>