<?xml version="1.0" encoding="UTF-8" standalone="no"?>
<svg
   xmlns:dc="http://purl.org/dc/elements/1.1/"
   xmlns:cc="http://creativecommons.org/ns#"
   xmlns:rdf="http://www.w3.org/1999/02/22-rdf-syntax-ns#"
   xmlns:svg="http://www.w3.org/2000/svg"
   xmlns="http://www.w3.org/2000/svg"
   height="70.799896"
   width="467.72427"
   version="1.1"
   viewBox="0 0 467.72427 70.799896"
   data-name="Layer 1"
   id="Layer_1">
  <metadata
     id="metadata65">
    <rdf:RDF>
      <cc:Work
         rdf:about="">
        <dc:format>image/svg+xml</dc:format>
        <dc:type
           rdf:resource="http://purl.org/dc/dcmitype/StillImage" />
        <dc:title></dc:title>
      </cc:Work>
    </rdf:RDF>
  </metadata>
  <defs
     id="defs46">
    <linearGradient
       gradientUnits="userSpaceOnUse"
       gradientTransform="translate(0,14)"
       y2="359.07001"
       x2="450.37"
       y1="359.07001"
       x1="305.16"
       id="New_Gradient_Swatch_1">
      <stop
         id="stop2"
         stop-color="#ffef26"
         offset="0" />
      <stop
         id="stop4"
         stop-color="#feeb26"
         offset="0" />
      <stop
         id="stop6"
         stop-color="#f7ba28"
         offset=".03" />
      <stop
         id="stop8"
         stop-color="#f19029"
         offset=".05" />
      <stop
         id="stop10"
         stop-color="#ec6e2b"
         offset=".07" />
      <stop
         id="stop12"
         stop-color="#e8532c"
         offset=".1" />
      <stop
         id="stop14"
         stop-color="#e5402c"
         offset=".13" />
      <stop
         id="stop16"
         stop-color="#e4352d"
         offset=".15" />
      <stop
         id="stop18"
         stop-color="#e3312d"
         offset=".18" />
      <stop
         id="stop20"
         stop-color="#e6007e"
         offset=".36" />
      <stop
         id="stop22"
         stop-color="#662483"
         offset=".52" />
      <stop
         id="stop24"
         stop-color="#1d71b8"
         offset=".68" />
      <stop
         id="stop26"
         stop-color="#2fac66"
         offset=".84" />
      <stop
         id="stop28"
         stop-color="#dedc00"
         offset="1" />
    </linearGradient>
    <linearGradient
       gradientUnits="userSpaceOnUse"
       gradientTransform="matrix(-0.36072702,0,0,0.36072702,1053.4933,198.32824)"
       y2="153.86"
       x2="2360.9199"
       y1="291.89001"
       x1="2360.9199"
       id="linear-gradient">
      <stop
         id="stop31"
         stop-color="#e3312d"
         offset="0" />
      <stop
         id="stop33"
         stop-color="#e6007e"
         offset=".18" />
      <stop
         id="stop35"
         stop-color="#662483"
         offset=".43" />
      <stop
         id="stop37"
         stop-color="#1d71b8"
         offset=".64" />
      <stop
         id="stop39"
         stop-color="#2fac66"
         offset=".85" />
      <stop
         id="stop41"
         stop-color="#ffee37"
         offset="1" />
    </linearGradient>
    <style
       id="style44">.cls-1{fill:#575756}.cls-2{fill:url(#New_Gradient_Swatch_1)}.cls-3{fill:#1d1d1b}.cls-4{fill:none;stroke-linecap:round;stroke-miterlimit:10;stroke-width:5px;stroke:#1d1d1b}</style>
  </defs>
  <g
     transform="translate(-2.5857329,-252.41693)"
     id="g892">
    <g
       id="g881"
       transform="translate(20,-84.931533)">
      <path
         id="path48"
         d="m 313.35,391.24 h 19.55 v 5.61 h -25 l 5.42,-5.61 m -1.51,-2.37 -6.68,6.68 v -46.92 h 6.68 v 40.24 m 78.89,-8.81 a 21.77,21.77 0 0 1 -1.13,7.21 14.92,14.92 0 0 1 -3.3,5.5 14.69,14.69 0 0 1 -5.33,3.5 19.64,19.64 0 0 1 -7.25,1.24 21.71,21.71 0 0 1 -7.64,-1.18 13,13 0 0 1 -5.11,-3.34 13.34,13.34 0 0 1 -2.88,-5.18 23.66,23.66 0 0 1 -0.9,-6.75 v -32.43 h 6.57 v 31.91 a 21.07,21.07 0 0 0 0.53,5 8.66,8.66 0 0 0 1.74,3.56 7.63,7.63 0 0 0 3.15,2.18 13.42,13.42 0 0 0 4.74,0.73 q 5.23,0 7.73,-3 2.5,-3 2.49,-8.52 v -31.86 h 6.57 z m 38.3,-0.44 -10.41,17.23 h -8.19 l 16.05,-24.65 -14.76,-23.57 h 7.79 l 9.66,15.9 v 14.78 m 2.59,0.39 v -15 l 9.81,-16 h 7.56 l -14.79,23.28 16,24.94 h -8.3 L 431.75,379.7"
         class="cls-1"
         style="fill:#575756" />
      <path
         id="path50"
         d="m 313.35,391.24 h 19.55 v 5.61 h -25 l 5.42,-5.61 m -1.51,-2.37 -6.68,6.68 v -46.92 h 6.68 v 40.24 m 78.89,-8.81 a 21.77,21.77 0 0 1 -1.13,7.21 14.92,14.92 0 0 1 -3.3,5.5 14.69,14.69 0 0 1 -5.33,3.5 19.64,19.64 0 0 1 -7.25,1.24 21.71,21.71 0 0 1 -7.64,-1.18 13,13 0 0 1 -5.11,-3.34 13.34,13.34 0 0 1 -2.88,-5.18 23.66,23.66 0 0 1 -0.9,-6.75 v -32.43 h 6.57 v 31.91 a 21.07,21.07 0 0 0 0.53,5 8.66,8.66 0 0 0 1.74,3.56 7.63,7.63 0 0 0 3.15,2.18 13.42,13.42 0 0 0 4.74,0.73 q 5.23,0 7.73,-3 2.5,-3 2.49,-8.52 v -31.86 h 6.57 z m 38.3,-0.44 -10.41,17.23 h -8.19 l 16.05,-24.65 -14.76,-23.57 h 7.79 l 9.66,15.9 v 14.78 m 2.59,0.39 v -15 l 9.81,-16 h 7.56 l -14.79,23.28 16,24.94 h -8.3 L 431.75,379.7"
         class="cls-2"
         style="fill:url(#New_Gradient_Swatch_1)" />
      <path
         id="path52"
         d="m 111.27,372.42 a 36.56,36.56 0 0 1 -1.54,11.22 22.71,22.71 0 0 1 -4.13,7.8 16.4,16.4 0 0 1 -6.08,4.56 18.62,18.62 0 0 1 -7.36,1.49 18.31,18.31 0 0 1 -8.1,-1.68 A 15,15 0 0 1 78.34,391 22.24,22.24 0 0 1 75,383.25 44.06,44.06 0 0 1 73.86,373 a 36.68,36.68 0 0 1 1.51,-11.15 22.87,22.87 0 0 1 4.11,-7.8 16.39,16.39 0 0 1 6.07,-4.57 19.44,19.44 0 0 1 15.44,0.2 15.44,15.44 0 0 1 5.74,4.85 22.06,22.06 0 0 1 3.41,7.69 42.63,42.63 0 0 1 1.13,10.2 z m -6.83,0.48 a 43.19,43.19 0 0 0 -0.64,-7.76 19.52,19.52 0 0 0 -2.09,-6.07 10.71,10.71 0 0 0 -3.71,-3.95 10.26,10.26 0 0 0 -5.48,-1.4 9.42,9.42 0 0 0 -5.33,1.49 11.74,11.74 0 0 0 -3.67,4.06 20.65,20.65 0 0 0 -2.14,6 37.29,37.29 0 0 0 -0.7,7.33 41.61,41.61 0 0 0 0.67,7.8 19.56,19.56 0 0 0 2.08,6 10.71,10.71 0 0 0 3.67,3.93 10.1,10.1 0 0 0 5.42,1.4 9.48,9.48 0 0 0 5.35,-1.49 11.74,11.74 0 0 0 3.71,-4.06 20.41,20.41 0 0 0 2.16,-6 36.36,36.36 0 0 0 0.7,-7.28 z m 36.29,1.15 v 22.8 h -6.57 v -48.22 h 13.58 a 29.09,29.09 0 0 1 6.86,0.79 16.56,16.56 0 0 1 5.77,2.56 13,13 0 0 1 4,4.58 14.53,14.53 0 0 1 1.47,6.82 16.43,16.43 0 0 1 -1.1,5.85 14.69,14.69 0 0 1 -3.43,5.19 17.38,17.38 0 0 1 -5.94,3.7 22.63,22.63 0 0 1 -6,1.42 h -5.79 V 374 m 3.33,-0.12 c 3.89,0 6.88,-0.84 9,-2.54 2.12,-1.7 3.16,-4.27 3.16,-7.71 a 8.64,8.64 0 0 0 -3.05,-7.12 q -3,-2.47 -8.5,-2.47 h -6.71 v 20 h 2.79 m 55.23,22.81 h -6.51 v -48.22 h 6.62 z m 54.5,-39.74 -3.81,-8.48 h 6.13 m -2.32,15.23 v 33 h -6.12 V 350.4 m 8.44,-1.77 13.4,28.48 4.83,11 V 348.63 H 280 v 48.22 h -8.56 l -14.05,-30.07 -4.06,-9.67 m -52.17,12.92 h 18.58 v 5.42 h -18.58 z m 0,21.4 h 18.58 v 5.42 h -18.58 z m 0,-42.8 h 18.58 v 5.42 h -18.58 z"
         class="cls-3"
         style="fill:#ffffff" />
    </g>
    <g
       id="g876"
       transform="translate(-165.25424,12.976694)">
      <path
         style="fill:none;stroke:#ffffff;stroke-width:1.80363417px;stroke-linecap:round;stroke-miterlimit:10"
         id="path54"
         d="m 191.79594,295.5874 -1.6413,-0.69979 a 1.9803917,1.9803917 0 0 0 -2.16452,0.42924 l -4.05807,4.0582 a 1.99482,1.99482 0 0 1 -2.82093,0 l -5.36758,-5.36765 a 1.99482,1.99482 0 0 1 0,-2.82083 l 4.28178,-4.3288 a 1.4429077,1.4429077 0 0 0 0.30311,-1.55831 l -2.04538,-4.90945 a 1.9731761,1.9731761 0 0 0 -1.82163,-1.21572 h -5.72476 a 1.9984272,1.9984272 0 0 1 -1.99487,-1.99481 v -7.57527 a 1.99482,1.99482 0 0 1 1.99487,-1.99479 h 5.85453 a 1.9876056,1.9876056 0 0 0 1.82533,-1.19408 l 2.01285,-4.59924 a 1.9803917,1.9803917 0 0 0 -0.42921,-2.16433 l -4.05828,-4.04742 a 1.99482,1.99482 0 0 1 0,-2.82077 l 5.36762,-5.36758 a 1.99482,1.99482 0 0 1 2.82104,0 l 4.05078,3.96798 a 1.9839985,1.9839985 0 0 0 2.1645,0.4183 l 4.58119,-1.8902 a 1.9443181,1.9443181 0 0 0 1.19761,-1.8036 v -5.77158 a 1.9984272,1.9984272 0 0 1 1.99486,-1.99485 h 7.57524 a 1.99482,1.99482 0 0 1 1.99475,1.99485 l -0.0247,5.84734 a 1.9298887,1.9298887 0 0 0 1.22283,1.80371 l 4.60286,1.80363 a 1.9803917,1.9803917 0 0 0 2.16429,-0.42926 l 4.0582,-4.05819 a 1.99482,1.99482 0 0 1 2.82088,0 l 5.36757,5.3676 a 1.99482,1.99482 0 0 1 0,2.82086 l -4.04377,4.04373 a 1.9912131,1.9912131 0 0 0 -0.42922,2.1644 l 1.96966,4.71835 a 1.9731761,1.9731761 0 0 0 1.82168,1.21562 h 5.73913 a 1.9984272,1.9984272 0 0 1 1.99481,1.99477 v 7.57536 c 0,1.10377 -0.89456,1.99477 -2.5504,2.84243 l -5.25569,0.0288 a 1.9912131,1.9912131 0 0 0 -1.77492,1.10747 l -1.9587,3.94988 a 1.9803917,1.9803917 0 0 0 0.42924,2.16438 l 4.05818,4.05814 a 1.99482,1.99482 0 0 1 0,2.82092 l -5.36757,5.36757 a 1.99482,1.99482 0 0 1 -2.82088,0 l -4.04736,-4.07268 a 1.9839985,1.9839985 0 0 0 -2.16434,-0.43641 l -1.2985,0.54113 m -16.83529,9.67468 h 12.961 m -10.63066,4.08709 h 8.29668"
         class="cls-4" />
      <path
         style="fill:none;stroke:#ffffff;stroke-width:1.80363417px;stroke-linecap:round;stroke-miterlimit:10"
         id="path56"
         d="m 199.08614,293.92085 v -7.19649 a 1.2300788,1.2300788 0 0 0 -0.64923,-1.08221 c -1.26257,-0.67082 -3.88147,-2.92188 -3.39086,-9.99569 m 9.56286,18.27439 v -7.19649 a 1.2300788,1.2300788 0 0 1 0.64921,-1.08221 c 1.26262,-0.67082 3.87794,-2.92188 3.39095,-9.99569"
         class="cls-4" />
      <path
         style="fill:none;stroke:url(#linear-gradient);stroke-width:1.80363417;stroke-linecap:round;stroke-miterlimit:10"
         id="path58"
         stroke-miterlimit="10"
         d="m 192.42722,302.71899 c 0.99921,-5.02859 0.90895,-9.13356 -2.95448,-12.71203 -4.71111,-4.35757 -7.32992,-9.60257 -7.32992,-15.55815 a 19.720939,19.720939 0 0 1 39.43833,0 c 0,5.95558 -2.61891,11.18251 -7.33002,15.55815 -3.86336,3.57847 -3.96797,7.68344 -2.95432,12.71203" />
      <path
         style="fill:none;stroke:#ffffff;stroke-width:1.80363417px;stroke-linecap:round;stroke-miterlimit:10"
         id="path60"
         d="m 197.69738,301.16787 h 8.29671"
         class="cls-4" />
    </g>
  </g>
</svg>
