<?xml version="1.0" encoding="UTF-8" standalone="no"?>
<svg
   xmlns:dc="http://purl.org/dc/elements/1.1/"
   xmlns:cc="http://creativecommons.org/ns#"
   xmlns:rdf="http://www.w3.org/1999/02/22-rdf-syntax-ns#"
   xmlns:svg="http://www.w3.org/2000/svg"
   xmlns="http://www.w3.org/2000/svg"
   xmlns:sodipodi="http://sodipodi.sourceforge.net/DTD/sodipodi-0.dtd"
   xmlns:inkscape="http://www.inkscape.org/namespaces/inkscape"
   id="Layer_1"
   data-name="Layer 1"
   viewBox="0 0 376.45688 283.54721"
   version="1.1"
   sodipodi:docname="bulb+text.svg"
   width="376.45688"
   height="283.54721"
   inkscape:version="0.92.4 5da689c313, 2019-01-14">
  <metadata
     id="metadata65">
    <rdf:RDF>
      <cc:Work
         rdf:about="">
        <dc:format>image/svg+xml</dc:format>
        <dc:type
           rdf:resource="http://purl.org/dc/dcmitype/StillImage" />
      </cc:Work>
    </rdf:RDF>
  </metadata>
  <sodipodi:namedview
     pagecolor="#ffffff"
     bordercolor="#666666"
     borderopacity="1"
     objecttolerance="10"
     gridtolerance="10"
     guidetolerance="10"
     inkscape:pageopacity="0"
     inkscape:pageshadow="2"
     inkscape:window-width="1067"
     inkscape:window-height="526"
     id="namedview63"
     showgrid="false"
     inkscape:zoom="0.472"
     inkscape:cx="176.14689"
     inkscape:cy="147.5172"
     inkscape:window-x="0"
     inkscape:window-y="56"
     inkscape:window-maximized="0"
     inkscape:current-layer="Layer_1" />
  <defs
     id="defs46">
    <linearGradient
       id="New_Gradient_Swatch_1"
       x1="305.16"
       y1="359.07001"
       x2="450.37"
       y2="359.07001"
       gradientTransform="translate(-73.853113,-99.97)"
       gradientUnits="userSpaceOnUse">
      <stop
         offset="0"
         stop-color="#ffef26"
         id="stop2" />
      <stop
         offset="0"
         stop-color="#feeb26"
         id="stop4" />
      <stop
         offset=".03"
         stop-color="#f7ba28"
         id="stop6" />
      <stop
         offset=".05"
         stop-color="#f19029"
         id="stop8" />
      <stop
         offset=".07"
         stop-color="#ec6e2b"
         id="stop10" />
      <stop
         offset=".1"
         stop-color="#e8532c"
         id="stop12" />
      <stop
         offset=".13"
         stop-color="#e5402c"
         id="stop14" />
      <stop
         offset=".15"
         stop-color="#e4352d"
         id="stop16" />
      <stop
         offset=".18"
         stop-color="#e3312d"
         id="stop18" />
      <stop
         offset=".36"
         stop-color="#e6007e"
         id="stop20" />
      <stop
         offset=".52"
         stop-color="#662483"
         id="stop22" />
      <stop
         offset=".68"
         stop-color="#1d71b8"
         id="stop24" />
      <stop
         offset=".84"
         stop-color="#2fac66"
         id="stop26" />
      <stop
         offset="1"
         stop-color="#dedc00"
         id="stop28" />
    </linearGradient>
    <linearGradient
       id="linear-gradient"
       x1="2360.9199"
       y1="291.89001"
       x2="2360.9199"
       y2="153.86"
       gradientTransform="matrix(-1,0,0,1,2549.1769,-113.97)"
       gradientUnits="userSpaceOnUse">
      <stop
         offset="0"
         stop-color="#e3312d"
         id="stop31" />
      <stop
         offset=".18"
         stop-color="#e6007e"
         id="stop33" />
      <stop
         offset=".43"
         stop-color="#662483"
         id="stop35" />
      <stop
         offset=".64"
         stop-color="#1d71b8"
         id="stop37" />
      <stop
         offset=".85"
         stop-color="#2fac66"
         id="stop39" />
      <stop
         offset="1"
         stop-color="#ffee37"
         id="stop41" />
    </linearGradient>
    <style
       id="style44">.cls-1{fill:#575756}.cls-2{fill:url(#New_Gradient_Swatch_1)}.cls-3{fill:#1d1d1b}.cls-4{fill:none;stroke-linecap:round;stroke-miterlimit:10;stroke-width:5px;stroke:#1d1d1b}</style>
  </defs>
  <path
     class="cls-1"
     d="m 239.49689,277.27 h 19.55 v 5.61 h -25 l 5.42,-5.61 m -1.51,-2.37 -6.68,6.68 v -46.92 h 6.68 v 40.24 m 78.89,-8.81 a 21.77,21.77 0 0 1 -1.13,7.21 14.92,14.92 0 0 1 -3.3,5.5 14.69,14.69 0 0 1 -5.33,3.5 19.64,19.64 0 0 1 -7.25,1.24 21.71,21.71 0 0 1 -7.64,-1.18 13,13 0 0 1 -5.11,-3.34 13.34,13.34 0 0 1 -2.88,-5.18 23.66,23.66 0 0 1 -0.9,-6.75 v -32.43 h 6.57 v 31.91 a 21.07,21.07 0 0 0 0.53,5 8.66,8.66 0 0 0 1.74,3.56 7.63,7.63 0 0 0 3.15,2.18 13.42,13.42 0 0 0 4.74,0.73 q 5.23,0 7.73,-3 2.5,-3 2.49,-8.52 v -31.86 h 6.57 z m 38.3,-0.44 -10.41,17.23 h -8.19 l 16.05,-24.65 -14.76,-23.57 h 7.79 l 9.66,15.9 v 14.78 m 2.59,0.39 v -15 l 9.81,-16 h 7.56 l -14.79,23.28 16,24.94 h -8.3 l -10.26,-17.22"
     id="path48"
     inkscape:connector-curvature="0"
     style="fill:#575756" />
  <path
     class="cls-2"
     d="m 239.49689,277.27 h 19.55 v 5.61 h -25 l 5.42,-5.61 m -1.51,-2.37 -6.68,6.68 v -46.92 h 6.68 v 40.24 m 78.89,-8.81 a 21.77,21.77 0 0 1 -1.13,7.21 14.92,14.92 0 0 1 -3.3,5.5 14.69,14.69 0 0 1 -5.33,3.5 19.64,19.64 0 0 1 -7.25,1.24 21.71,21.71 0 0 1 -7.64,-1.18 13,13 0 0 1 -5.11,-3.34 13.34,13.34 0 0 1 -2.88,-5.18 23.66,23.66 0 0 1 -0.9,-6.75 v -32.43 h 6.57 v 31.91 a 21.07,21.07 0 0 0 0.53,5 8.66,8.66 0 0 0 1.74,3.56 7.63,7.63 0 0 0 3.15,2.18 13.42,13.42 0 0 0 4.74,0.73 q 5.23,0 7.73,-3 2.5,-3 2.49,-8.52 v -31.86 h 6.57 z m 38.3,-0.44 -10.41,17.23 h -8.19 l 16.05,-24.65 -14.76,-23.57 h 7.79 l 9.66,15.9 v 14.78 m 2.59,0.39 v -15 l 9.81,-16 h 7.56 l -14.79,23.28 16,24.94 h -8.3 l -10.26,-17.22"
     id="path50"
     inkscape:connector-curvature="0"
     style="fill:url(#New_Gradient_Swatch_1)" />
  <path
     class="cls-3"
     d="m 37.416887,258.45 a 36.56,36.56 0 0 1 -1.54,11.22 22.71,22.71 0 0 1 -4.13,7.8 16.4,16.4 0 0 1 -6.08,4.56 18.62,18.62 0 0 1 -7.36,1.49 18.31,18.31 0 0 1 -8.1,-1.68 15,15 0 0 1 -5.7200002,-4.81 22.24,22.24 0 0 1 -3.34,-7.75 44.06,44.06 0 0 1 -1.13999997,-10.25 36.68,36.68 0 0 1 1.50999997,-11.15 22.87,22.87 0 0 1 4.11,-7.8 16.39,16.39 0 0 1 6.0700002,-4.57 19.44,19.44 0 0 1 15.44,0.2 15.44,15.44 0 0 1 5.74,4.85 22.06,22.06 0 0 1 3.41,7.69 42.63,42.63 0 0 1 1.13,10.2 z m -6.83,0.48 a 43.19,43.19 0 0 0 -0.64,-7.76 19.52,19.52 0 0 0 -2.09,-6.07 10.71,10.71 0 0 0 -3.71,-3.95 10.26,10.26 0 0 0 -5.48,-1.4 9.42,9.42 0 0 0 -5.33,1.49 11.74,11.74 0 0 0 -3.6700002,4.06 20.65,20.65 0 0 0 -2.14,6 37.29,37.29 0 0 0 -0.7,7.33 41.61,41.61 0 0 0 0.67,7.8 19.56,19.56 0 0 0 2.08,6 10.71,10.71 0 0 0 3.6700002,3.93 10.1,10.1 0 0 0 5.42,1.4 9.48,9.48 0 0 0 5.35,-1.49 11.74,11.74 0 0 0 3.71,-4.06 20.41,20.41 0 0 0 2.16,-6 36.36,36.36 0 0 0 0.7,-7.28 z m 36.29,1.15 v 22.8 h -6.57 v -48.22 h 13.58 a 29.09,29.09 0 0 1 6.86,0.79 16.56,16.56 0 0 1 5.77,2.56 13,13 0 0 1 4,4.58 14.53,14.53 0 0 1 1.47,6.82 16.43,16.43 0 0 1 -1.1,5.85 14.69,14.69 0 0 1 -3.43,5.19 17.38,17.38 0 0 1 -5.94,3.7 22.63,22.63 0 0 1 -6,1.42 h -5.79 v -5.54 m 3.33,-0.12 c 3.89,0 6.88,-0.84 9,-2.54 2.12,-1.7 3.16,-4.27 3.16,-7.71 a 8.64,8.64 0 0 0 -3.05,-7.12 q -3,-2.47 -8.5,-2.47 h -6.71 v 20 h 2.79 m 55.230003,22.81 h -6.51 v -48.22 h 6.62 z m 54.5,-39.74 -3.81,-8.48 h 6.13 m -2.32,15.23 v 33 h -6.12 v -46.46 m 8.44,-1.77 13.4,28.48 4.83,11 v -39.48 h 6.12 v 48.22 h -8.56 l -14.05,-30.07 -4.06,-9.67 m -52.17,12.92 h 18.58 v 5.42 h -18.58 z m 0,21.4 h 18.58 v 5.42 h -18.58 z m 0,-42.8 h 18.58 v 5.42 h -18.58 z"
     id="path52"
     inkscape:connector-curvature="0"
     style="fill:#1d1d1b" />
  <path
     class="cls-4"
     d="m 160.39689,155.65 -4.55,-1.94 a 5.49,5.49 0 0 0 -6,1.19 l -11.25,11.25 a 5.53,5.53 0 0 1 -7.82,0 l -14.88,-14.88 a 5.53,5.53 0 0 1 0,-7.82 l 11.87,-12 a 4,4 0 0 0 0.84,-4.32 l -5.67,-13.61 a 5.47,5.47 0 0 0 -5.05,-3.37 h -15.87 a 5.54,5.54 0 0 1 -5.530003,-5.53 v -21 a 5.53,5.53 0 0 1 5.530003,-5.53 h 16.23 a 5.51,5.51 0 0 0 5.06,-3.31 l 5.58,-12.75 a 5.49,5.49 0 0 0 -1.19,-6 l -11.25,-11.22 a 5.53,5.53 0 0 1 0,-7.82 l 14.88,-14.88 a 5.53,5.53 0 0 1 7.82,0 l 11.23,11 a 5.5,5.5 0 0 0 6,1.16 l 12.7,-5.24 a 5.39,5.39 0 0 0 3.32,-5 v -16 a 5.54,5.54 0 0 1 5.53,-5.53 h 21 a 5.53,5.53 0 0 1 5.53,5.53 l -0.07,16.21 a 5.35,5.35 0 0 0 3.39,5 l 12.76,5 a 5.49,5.49 0 0 0 6,-1.19 l 11.25,-11.25 a 5.53,5.53 0 0 1 7.82,0 l 14.88,14.88 a 5.53,5.53 0 0 1 0,7.82 l -11.21,11.21 a 5.52,5.52 0 0 0 -1.19,6 l 5.46,13.08 a 5.47,5.47 0 0 0 5.05,3.37 h 15.91 a 5.54,5.54 0 0 1 5.53,5.53 v 21 c 0,3.06 -2.48,5.53 -7.07,7.88 l -14.57,0.08 a 5.52,5.52 0 0 0 -4.92,3.07 l -5.43,10.95 a 5.49,5.49 0 0 0 1.19,6 l 11.25,11.25 a 5.53,5.53 0 0 1 0,7.82 l -14.88,14.88 a 5.53,5.53 0 0 1 -7.82,0 l -11.22,-11.29 a 5.5,5.5 0 0 0 -6,-1.21 l -3.6,1.5 m -46.67,26.82 h 35.93 m -29.47,11.33 h 23"
     id="path54"
     inkscape:connector-curvature="0"
     style="fill:none;stroke:#1d1d1b;stroke-width:5px;stroke-linecap:round;stroke-miterlimit:10" />
  <path
     class="cls-4"
     d="m 180.60689,151.03 v -19.95 a 3.41,3.41 0 0 0 -1.8,-3 c -3.5,-1.86 -10.76,-8.1 -9.4,-27.71 m 26.51,50.66 v -19.95 a 3.41,3.41 0 0 1 1.8,-3 c 3.5,-1.86 10.75,-8.1 9.4,-27.71"
     id="path56"
     inkscape:connector-curvature="0"
     style="fill:none;stroke:#1d1d1b;stroke-width:5px;stroke-linecap:round;stroke-miterlimit:10" />
  <path
     d="m 162.14689,175.42 c 2.77,-13.94 2.52,-25.32 -8.19,-35.24 -13.06,-12.08 -20.32,-26.62 -20.32,-43.13 a 54.67,54.67 0 0 1 109.33,0 c 0,16.51 -7.26,31 -20.32,43.13 -10.71,9.92 -11,21.3 -8.19,35.24"
     stroke-miterlimit="10"
     id="path58"
     inkscape:connector-curvature="0"
     style="fill:none;stroke:url(#linear-gradient);stroke-width:5;stroke-linecap:round;stroke-miterlimit:10" />
  <path
     class="cls-4"
     d="m 176.75689,171.12 h 23"
     id="path60"
     inkscape:connector-curvature="0"
     style="fill:none;stroke:#1d1d1b;stroke-width:5px;stroke-linecap:round;stroke-miterlimit:10" />
</svg>
