<?xml version="1.0" encoding="UTF-8" standalone="no"?>
<svg
   xmlns:dc="http://purl.org/dc/elements/1.1/"
   xmlns:cc="http://creativecommons.org/ns#"
   xmlns:rdf="http://www.w3.org/1999/02/22-rdf-syntax-ns#"
   xmlns:svg="http://www.w3.org/2000/svg"
   xmlns="http://www.w3.org/2000/svg"
   xmlns:sodipodi="http://sodipodi.sourceforge.net/DTD/sodipodi-0.dtd"
   xmlns:inkscape="http://www.inkscape.org/namespaces/inkscape"
   id="Layer_1"
   data-name="Layer 1"
   viewBox="0 0 307.89999 320.51044"
   version="1.1"
   sodipodi:docname="bulb.svg"
   width="307.89999"
   height="320.51044"
   inkscape:version="0.92.4 5da689c313, 2019-01-14">
  <metadata
     id="metadata30">
    <rdf:RDF>
      <cc:Work
         rdf:about="">
        <dc:format>image/svg+xml</dc:format>
        <dc:type
           rdf:resource="http://purl.org/dc/dcmitype/StillImage" />
      </cc:Work>
    </rdf:RDF>
  </metadata>
  <sodipodi:namedview
     pagecolor="#ffffff"
     bordercolor="#666666"
     borderopacity="1"
     objecttolerance="10"
     gridtolerance="10"
     guidetolerance="10"
     inkscape:pageopacity="0"
     inkscape:pageshadow="2"
     inkscape:window-width="1067"
     inkscape:window-height="526"
     id="namedview28"
     showgrid="false"
     inkscape:zoom="0.472"
     inkscape:cx="153.97"
     inkscape:cy="160.25045"
     inkscape:window-x="0"
     inkscape:window-y="56"
     inkscape:window-maximized="0"
     inkscape:current-layer="Layer_1" />
  <defs
     id="defs17">
    <linearGradient
       id="linear-gradient"
       x1="2373.03"
       y1="380.37"
       x2="2373.03"
       y2="154.69"
       gradientTransform="matrix(-1,0,0,1,2527,-89.74)"
       gradientUnits="userSpaceOnUse">
      <stop
         offset="0"
         stop-color="#e3312d"
         id="stop2" />
      <stop
         offset=".18"
         stop-color="#e6007e"
         id="stop4" />
      <stop
         offset=".43"
         stop-color="#662483"
         id="stop6" />
      <stop
         offset=".64"
         stop-color="#1d71b8"
         id="stop8" />
      <stop
         offset=".85"
         stop-color="#2fac66"
         id="stop10" />
      <stop
         offset="1"
         stop-color="#ffee37"
         id="stop12" />
    </linearGradient>
    <style
       id="style15">.cls-1{fill:none;stroke-linecap:round;stroke-miterlimit:10;stroke-width:9px;stroke:#1d1d1b}</style>
  </defs>
  <path
     class="cls-1"
     d="m 108.58,253.93 -7.41,-3.16 a 8.89,8.89 0 0 0 -9.7,1.94 l -18.32,18.32 a 9,9 0 0 1 -12.74,0 L 36.18,246.79 a 9,9 0 0 1 0,-12.74 L 55.5,214.59 a 6.47,6.47 0 0 0 1.38,-7 l -9.24,-22.17 a 8.92,8.92 0 0 0 -8.23,-5.49 H 13.5 a 9,9 0 0 1 -9,-9 v -34.32 a 9,9 0 0 1 9,-9 h 26.44 a 9,9 0 0 0 8.24,-5.39 l 9.08,-20.84 A 8.93,8.93 0 0 0 55.32,91.67 L 36.97,73.39 a 9,9 0 0 1 0,-12.74 L 61.21,36.42 a 9,9 0 0 1 12.73,0 l 18.29,18 a 9,9 0 0 0 9.74,1.84 l 20.73,-8.64 a 8.79,8.79 0 0 0 5.41,-8.12 v -26 a 9,9 0 0 1 9,-9 h 34.27 a 9,9 0 0 1 9,9 l -0.13,26.4 a 8.73,8.73 0 0 0 5.53,8.14 l 20.79,8.12 a 8.94,8.94 0 0 0 9.71,-1.94 L 234.6,35.9 a 9,9 0 0 1 12.73,0 l 24.24,24.23 a 9,9 0 0 1 0,12.74 l -18.25,18.25 a 9,9 0 0 0 -1.95,9.85 l 8.89,21.3 a 8.92,8.92 0 0 0 8.23,5.49 h 25.91 a 9,9 0 0 1 9,9 v 34.3 c 0,5 -4,9 -11.52,12.83 l -23.72,0.12 a 9,9 0 0 0 -8,5 l -8.85,17.84 a 8.92,8.92 0 0 0 1.94,9.71 l 18.32,18.32 a 9,9 0 0 1 0,12.74 l -24.2,24.23 a 9,9 0 0 1 -12.73,0 L 216.35,253.4 a 8.94,8.94 0 0 0 -9.8,-2 l -5.86,2.44 m -75.98,43.73 h 58.52 m -47.99,18.44 h 37.46"
     id="path19"
     inkscape:connector-curvature="0"
     style="fill:none;stroke:#1d1d1b;stroke-width:9px;stroke-linecap:round;stroke-miterlimit:10" />
  <path
     class="cls-1"
     d="m 141.51,246.36 v -32.45 a 5.54,5.54 0 0 0 -2.94,-4.9 c -5.71,-3 -17.52,-13.21 -15.31,-45.14 m 43.17,82.49 v -32.45 a 5.54,5.54 0 0 1 2.94,-4.9 c 5.71,-3 17.52,-13.21 15.31,-45.14"
     id="path21"
     inkscape:connector-curvature="0"
     style="fill:none;stroke:#1d1d1b;stroke-width:9px;stroke-linecap:round;stroke-miterlimit:10" />
  <path
     d="m 111.37,286.13 c 4.51,-22.7 4.11,-41.24 -13.34,-57.39 C 76.76,209.05 64.97,185.36 64.97,158.48 a 89.03,89.03 0 1 1 178.06,0 c 0,26.88 -11.82,50.57 -33.09,70.26 -17.45,16.15 -17.85,34.69 -13.34,57.39"
     stroke-miterlimit="10"
     id="path23"
     inkscape:connector-curvature="0"
     style="fill:none;stroke:url(#linear-gradient);stroke-width:9;stroke-linecap:round;stroke-miterlimit:10" />
  <path
     class="cls-1"
     d="M 135.24,279.13 H 172.7"
     id="path25"
     inkscape:connector-curvature="0"
     style="fill:none;stroke:#1d1d1b;stroke-width:9px;stroke-linecap:round;stroke-miterlimit:10" />
</svg>
