<svg id="Layer_1" data-name="Layer 1" xmlns="http://www.w3.org/2000/svg" viewBox="0 0 500 500"><defs><linearGradient id="New_Gradient_Swatch_1" x1="305.16" y1="359.07" x2="450.37" y2="359.07" gradientTransform="translate(0 14)" gradientUnits="userSpaceOnUse"><stop offset="0" stop-color="#ffef26"/><stop offset="0" stop-color="#feeb26"/><stop offset=".03" stop-color="#f7ba28"/><stop offset=".05" stop-color="#f19029"/><stop offset=".07" stop-color="#ec6e2b"/><stop offset=".1" stop-color="#e8532c"/><stop offset=".13" stop-color="#e5402c"/><stop offset=".15" stop-color="#e4352d"/><stop offset=".18" stop-color="#e3312d"/><stop offset=".36" stop-color="#e6007e"/><stop offset=".52" stop-color="#662483"/><stop offset=".68" stop-color="#1d71b8"/><stop offset=".84" stop-color="#2fac66"/><stop offset="1" stop-color="#dedc00"/></linearGradient><linearGradient id="linear-gradient" x1="2360.92" y1="291.89" x2="2360.92" y2="153.86" gradientTransform="matrix(-1 0 0 1 2623.03 0)" gradientUnits="userSpaceOnUse"><stop offset="0" stop-color="#e3312d"/><stop offset=".18" stop-color="#e6007e"/><stop offset=".43" stop-color="#662483"/><stop offset=".64" stop-color="#1d71b8"/><stop offset=".85" stop-color="#2fac66"/><stop offset="1" stop-color="#ffee37"/></linearGradient><style>.cls-1{fill:#575756}.cls-2{fill:url(#New_Gradient_Swatch_1)}.cls-3{fill:#1d1d1b}.cls-4{fill:none;stroke-linecap:round;stroke-miterlimit:10;stroke-width:5px;stroke:#1d1d1b}</style></defs><path class="cls-1" d="M313.35 391.24h19.55v5.61h-25l5.42-5.61m-1.51-2.37l-6.68 6.68v-46.92h6.68v40.24M390.7 380.06a21.77 21.77 0 01-1.13 7.21 14.92 14.92 0 01-3.3 5.5 14.69 14.69 0 01-5.33 3.5 19.64 19.64 0 01-7.25 1.24 21.71 21.71 0 01-7.64-1.18 13 13 0 01-5.11-3.34 13.34 13.34 0 01-2.88-5.18 23.66 23.66 0 01-.9-6.75v-32.43h6.57v31.91a21.07 21.07 0 00.53 5 8.66 8.66 0 001.74 3.56 7.63 7.63 0 003.15 2.18 13.42 13.42 0 004.74.73q5.23 0 7.73-3t2.49-8.52v-31.86h6.57zM429 379.62l-10.41 17.23h-8.19l16.05-24.65-14.76-23.57h7.79l9.66 15.9v14.78m2.59.39v-15l9.81-16h7.56l-14.79 23.28 16 24.94h-8.3l-10.26-17.22"/><path class="cls-2" d="M313.35 391.24h19.55v5.61h-25l5.42-5.61m-1.51-2.37l-6.68 6.68v-46.92h6.68v40.24M390.7 380.06a21.77 21.77 0 01-1.13 7.21 14.92 14.92 0 01-3.3 5.5 14.69 14.69 0 01-5.33 3.5 19.64 19.64 0 01-7.25 1.24 21.71 21.71 0 01-7.64-1.18 13 13 0 01-5.11-3.34 13.34 13.34 0 01-2.88-5.18 23.66 23.66 0 01-.9-6.75v-32.43h6.57v31.91a21.07 21.07 0 00.53 5 8.66 8.66 0 001.74 3.56 7.63 7.63 0 003.15 2.18 13.42 13.42 0 004.74.73q5.23 0 7.73-3t2.49-8.52v-31.86h6.57zM429 379.62l-10.41 17.23h-8.19l16.05-24.65-14.76-23.57h7.79l9.66 15.9v14.78m2.59.39v-15l9.81-16h7.56l-14.79 23.28 16 24.94h-8.3l-10.26-17.22"/><path class="cls-3" d="M111.27 372.42a36.56 36.56 0 01-1.54 11.22 22.71 22.71 0 01-4.13 7.8 16.4 16.4 0 01-6.08 4.56 18.62 18.62 0 01-7.36 1.49 18.31 18.31 0 01-8.1-1.68 15 15 0 01-5.72-4.81 22.24 22.24 0 01-3.34-7.75A44.06 44.06 0 0173.86 373a36.68 36.68 0 011.51-11.15 22.87 22.87 0 014.11-7.8 16.39 16.39 0 016.07-4.57 19.44 19.44 0 0115.44.2 15.44 15.44 0 015.74 4.85 22.06 22.06 0 013.41 7.69 42.63 42.63 0 011.13 10.2zm-6.83.48a43.19 43.19 0 00-.64-7.76 19.52 19.52 0 00-2.09-6.07 10.71 10.71 0 00-3.71-3.95 10.26 10.26 0 00-5.48-1.4 9.42 9.42 0 00-5.33 1.49 11.74 11.74 0 00-3.67 4.06 20.65 20.65 0 00-2.14 6 37.29 37.29 0 00-.7 7.33 41.61 41.61 0 00.67 7.8 19.56 19.56 0 002.08 6 10.71 10.71 0 003.67 3.93 10.1 10.1 0 005.42 1.4 9.48 9.48 0 005.35-1.49 11.74 11.74 0 003.71-4.06 20.41 20.41 0 002.16-6 36.36 36.36 0 00.7-7.28zM140.73 374.05v22.8h-6.57v-48.22h13.58a29.09 29.09 0 016.86.79 16.56 16.56 0 015.77 2.56 13 13 0 014 4.58 14.53 14.53 0 011.47 6.82 16.43 16.43 0 01-1.1 5.85 14.69 14.69 0 01-3.43 5.19 17.38 17.38 0 01-5.94 3.7 22.63 22.63 0 01-6 1.42h-5.79V374m3.33-.12c3.89 0 6.88-.84 9-2.54s3.16-4.27 3.16-7.71a8.64 8.64 0 00-3.05-7.12q-3-2.47-8.5-2.47h-6.71v20h2.79M198.83 396.85h-6.51v-48.22h6.62zM253.33 357.11l-3.81-8.48h6.13m-2.32 15.23v33h-6.12V350.4m8.44-1.77l13.4 28.48 4.83 11v-39.48H280v48.22h-8.56l-14.05-30.07-4.06-9.67M201.16 370.03h18.58v5.42h-18.58zM201.16 391.43h18.58v5.42h-18.58zM201.16 348.63h18.58v5.42h-18.58z"/><path class="cls-4" d="M234.25 269.62l-4.55-1.94a5.49 5.49 0 00-6 1.19l-11.25 11.25a5.53 5.53 0 01-7.82 0l-14.88-14.88a5.53 5.53 0 010-7.82l11.87-12a4 4 0 00.84-4.32l-5.67-13.61a5.47 5.47 0 00-5.05-3.37h-15.87a5.54 5.54 0 01-5.53-5.53v-21a5.53 5.53 0 015.53-5.53h16.23a5.51 5.51 0 005.06-3.31l5.58-12.75a5.49 5.49 0 00-1.19-6l-11.25-11.22a5.53 5.53 0 010-7.82l14.88-14.88a5.53 5.53 0 017.82 0l11.23 11a5.5 5.5 0 006 1.16l12.7-5.24a5.39 5.39 0 003.32-5v-16a5.54 5.54 0 015.53-5.53h21a5.53 5.53 0 015.53 5.53l-.07 16.21a5.35 5.35 0 003.39 5l12.76 5a5.49 5.49 0 006-1.19l11.25-11.25a5.53 5.53 0 017.82 0l14.88 14.88a5.53 5.53 0 010 7.82l-11.21 11.21a5.52 5.52 0 00-1.19 6l5.46 13.08a5.47 5.47 0 005.05 3.37h15.91a5.54 5.54 0 015.53 5.53v21c0 3.06-2.48 5.53-7.07 7.88l-14.57.08a5.52 5.52 0 00-4.92 3.07l-5.43 10.95a5.49 5.49 0 001.19 6l11.25 11.25a5.53 5.53 0 010 7.82l-14.88 14.88a5.53 5.53 0 01-7.82 0l-11.22-11.29a5.5 5.5 0 00-6-1.21l-3.6 1.5M244.15 296.41h35.93M250.61 307.74h23"/><path class="cls-4" d="M254.46 265v-19.95a3.41 3.41 0 00-1.8-3c-3.5-1.86-10.76-8.1-9.4-27.71M269.77 265v-19.95a3.41 3.41 0 011.8-3c3.5-1.86 10.75-8.1 9.4-27.71"/><path d="M236 289.39c2.77-13.94 2.52-25.32-8.19-35.24-13.06-12.08-20.32-26.62-20.32-43.13a54.67 54.67 0 01109.33 0c0 16.51-7.26 31-20.32 43.13-10.71 9.92-11 21.3-8.19 35.24" stroke="url(#linear-gradient)" fill="none" stroke-linecap="round" stroke-miterlimit="10" stroke-width="5"/><path class="cls-4" d="M250.61 285.09h23"/></svg>