<?xml version="1.0" encoding="UTF-8" standalone="no"?>
<!-- Created with Inkscape (http://www.inkscape.org/) -->

<svg
   xmlns:dc="http://purl.org/dc/elements/1.1/"
   xmlns:cc="http://creativecommons.org/ns#"
   xmlns:rdf="http://www.w3.org/1999/02/22-rdf-syntax-ns#"
   xmlns:svg="http://www.w3.org/2000/svg"
   xmlns="http://www.w3.org/2000/svg"
   xmlns:xlink="http://www.w3.org/1999/xlink"
   xmlns:sodipodi="http://sodipodi.sourceforge.net/DTD/sodipodi-0.dtd"
   xmlns:inkscape="http://www.inkscape.org/namespaces/inkscape"
   width="114.70153mm"
   height="15.107213mm"
   viewBox="0 0 114.70153 15.107213"
   version="1.1"
   id="svg8"
   inkscape:version="0.92.4 (5da689c313, 2019-01-14)"
   sodipodi:docname="whitetext.svg">
  <defs
     id="defs2">
    <style
       id="style10">.cls-1{fill:#575756;}.cls-2{fill:url(#New_Gradient_Swatch_1);}.cls-3{fill:#fff;}</style>
    <linearGradient
       gradientUnits="userSpaceOnUse"
       y2="253.57001"
       x2="466.76999"
       y1="253.57001"
       x1="299.57001"
       id="New_Gradient_Swatch_1">
      <stop
         id="stop12"
         stop-color="#ffef26"
         offset="0" />
      <stop
         id="stop14"
         stop-color="#feeb26"
         offset="0" />
      <stop
         id="stop16"
         stop-color="#f7ba28"
         offset="0.03" />
      <stop
         id="stop18"
         stop-color="#f19029"
         offset="0.05" />
      <stop
         id="stop20"
         stop-color="#ec6e2b"
         offset="0.07" />
      <stop
         id="stop22"
         stop-color="#e8532c"
         offset="0.1" />
      <stop
         id="stop24"
         stop-color="#e5402c"
         offset="0.13" />
      <stop
         id="stop26"
         stop-color="#e4352d"
         offset="0.15" />
      <stop
         id="stop28"
         stop-color="#e3312d"
         offset="0.18" />
      <stop
         id="stop30"
         stop-color="#e6007e"
         offset="0.36" />
      <stop
         id="stop32"
         stop-color="#662483"
         offset="0.52" />
      <stop
         id="stop34"
         stop-color="#1d71b8"
         offset="0.68" />
      <stop
         id="stop36"
         stop-color="#2fac66"
         offset="0.84" />
      <stop
         id="stop38"
         stop-color="#dedc00"
         offset="1" />
    </linearGradient>
    <linearGradient
       inkscape:collect="always"
       xlink:href="#New_Gradient_Swatch_1"
       id="linearGradient107"
       gradientUnits="userSpaceOnUse"
       x1="299.57001"
       y1="253.57001"
       x2="466.76999"
       y2="253.57001" />
    <linearGradient
       inkscape:collect="always"
       xlink:href="#New_Gradient_Swatch_1"
       id="linearGradient109"
       gradientUnits="userSpaceOnUse"
       x1="299.57001"
       y1="253.57001"
       x2="466.76999"
       y2="253.57001" />
    <linearGradient
       inkscape:collect="always"
       xlink:href="#New_Gradient_Swatch_1"
       id="linearGradient111"
       gradientUnits="userSpaceOnUse"
       x1="299.57001"
       y1="253.57001"
       x2="466.76999"
       y2="253.57001" />
  </defs>
  <sodipodi:namedview
     id="base"
     pagecolor="#ffffff"
     bordercolor="#666666"
     borderopacity="1.0"
     inkscape:pageopacity="0.0"
     inkscape:pageshadow="2"
     inkscape:zoom="0.35"
     inkscape:cx="231.0445"
     inkscape:cy="-240.02236"
     inkscape:document-units="mm"
     inkscape:current-layer="layer1"
     showgrid="false"
     inkscape:window-width="2160"
     inkscape:window-height="1346"
     inkscape:window-x="-11"
     inkscape:window-y="-11"
     inkscape:window-maximized="1" />
  <metadata
     id="metadata5">
    <rdf:RDF>
      <cc:Work
         rdf:about="">
        <dc:format>image/svg+xml</dc:format>
        <dc:type
           rdf:resource="http://purl.org/dc/dcmitype/StillImage" />
        <dc:title></dc:title>
      </cc:Work>
    </rdf:RDF>
  </metadata>
  <g
     inkscape:label="Layer 1"
     inkscape:groupmode="layer"
     id="layer1"
     transform="translate(-44.70281,-70.220203)">
    <g
       id="g105"
       transform="matrix(0.26458333,0,0,0.26458333,35.904779,10.785125)">
      <path
         id="path45"
         d="m 309,274.49 h 22.51 V 281 h -28.76 l 6.25,-6.46 m -1.75,-2.73 -7.68,7.69 v -54 h 7.68 v 46.34"
         class="cls-1"
         inkscape:connector-curvature="0"
         style="fill:#575756" />
      <path
         id="path47"
         d="m 398.06,261.62 a 24.88,24.88 0 0 1 -1.3,8.3 16.57,16.57 0 0 1 -9.94,10.37 22.71,22.71 0 0 1 -8.34,1.42 25,25 0 0 1 -8.8,-1.36 14.87,14.87 0 0 1 -5.88,-3.84 15.18,15.18 0 0 1 -3.32,-6 27.21,27.21 0 0 1 -1,-7.77 V 225.42 H 367 v 36.75 a 23.94,23.94 0 0 0 0.61,5.74 10.14,10.14 0 0 0 2,4.12 8.63,8.63 0 0 0 3.63,2.5 15.35,15.35 0 0 0 5.46,0.85 q 6,0 8.9,-3.48 2.9,-3.48 2.87,-9.81 v -36.67 h 7.56 z"
         class="cls-1"
         inkscape:connector-curvature="0"
         style="fill:#575756" />
      <path
         id="path49"
         d="m 442.14,261.11 -12,19.84 h -9.44 l 18.48,-28.38 -17,-27.15 h 9 l 11.14,18.32 v 17 m 3,0.45 v -17.33 l 11.29,-18.46 h 8.71 l -17,26.81 18.45,28.79 h -9.56 l -11.88,-19.74"
         class="cls-1"
         inkscape:connector-curvature="0"
         style="fill:#575756" />
      <path
         id="path51"
         d="m 309,274.49 h 22.51 V 281 h -28.76 l 6.25,-6.46 m -1.75,-2.73 -7.68,7.69 v -54 h 7.68 v 46.34"
         class="cls-2"
         inkscape:connector-curvature="0"
         style="fill:url(#linearGradient107)" />
      <path
         id="path53"
         d="m 398.06,261.62 a 24.88,24.88 0 0 1 -1.3,8.3 16.57,16.57 0 0 1 -9.94,10.37 22.71,22.71 0 0 1 -8.34,1.42 25,25 0 0 1 -8.8,-1.36 14.87,14.87 0 0 1 -5.88,-3.84 15.18,15.18 0 0 1 -3.32,-6 27.21,27.21 0 0 1 -1,-7.77 V 225.42 H 367 v 36.75 a 23.94,23.94 0 0 0 0.61,5.74 10.14,10.14 0 0 0 2,4.12 8.63,8.63 0 0 0 3.63,2.5 15.35,15.35 0 0 0 5.46,0.85 q 6,0 8.9,-3.48 2.9,-3.48 2.87,-9.81 v -36.67 h 7.56 z"
         class="cls-2"
         inkscape:connector-curvature="0"
         style="fill:url(#linearGradient109)" />
      <path
         id="path55"
         d="m 442.14,261.11 -12,19.84 h -9.44 l 18.48,-28.38 -17,-27.15 h 9 l 11.14,18.32 v 17 m 3,0.45 v -17.33 l 11.29,-18.46 h 8.71 l -17,26.81 18.45,28.79 h -9.56 l -11.88,-19.74"
         class="cls-2"
         inkscape:connector-curvature="0"
         style="fill:url(#linearGradient111)" />
      <path
         id="path57"
         d="m 76.3,252.83 a 42.24,42.24 0 0 1 -1.76,12.91 26.36,26.36 0 0 1 -4.76,9 18.7,18.7 0 0 1 -7,5.27 21.2,21.2 0 0 1 -8.47,1.72 21.09,21.09 0 0 1 -9.31,-1.95 17.23,17.23 0 0 1 -6.58,-5.59 25.45,25.45 0 0 1 -3.89,-8.9 50.18,50.18 0 0 1 -1.27,-11.83 42.27,42.27 0 0 1 1.74,-12.83 26,26 0 0 1 4.74,-9 18.76,18.76 0 0 1 7,-5.27 21.09,21.09 0 0 1 8.46,-1.72 20.94,20.94 0 0 1 9.32,2 17.83,17.83 0 0 1 6.61,5.59 25.46,25.46 0 0 1 3.87,8.83 49.15,49.15 0 0 1 1.3,11.77 z m -7.86,0.55 a 49.27,49.27 0 0 0 -0.74,-8.94 22.45,22.45 0 0 0 -2.4,-7 12.34,12.34 0 0 0 -4.3,-4.54 11.81,11.81 0 0 0 -6.31,-1.61 10.77,10.77 0 0 0 -6.11,1.71 13.36,13.36 0 0 0 -4.22,4.67 23.67,23.67 0 0 0 -2.47,6.93 42,42 0 0 0 -0.8,8.43 48.6,48.6 0 0 0 0.76,9 22.75,22.75 0 0 0 2.4,7 12.22,12.22 0 0 0 4.23,4.52 11.52,11.52 0 0 0 6.24,1.62 10.94,10.94 0 0 0 6.16,-1.72 13.52,13.52 0 0 0 4.27,-4.68 23.3,23.3 0 0 0 2.49,-6.9 42.76,42.76 0 0 0 0.8,-8.49 z"
         class="cls-3"
         inkscape:connector-curvature="0"
         style="fill:#ffffff" />
      <path
         id="path59"
         d="M 110.22,254.7 V 281 h -7.56 v -55.58 h 15.64 a 33.51,33.51 0 0 1 7.9,0.92 19.15,19.15 0 0 1 6.65,2.95 14.83,14.83 0 0 1 4.56,5.27 16.72,16.72 0 0 1 1.7,7.86 18.71,18.71 0 0 1 -1.27,6.73 16.78,16.78 0 0 1 -4,6 20.25,20.25 0 0 1 -6.84,4.27 26.09,26.09 0 0 1 -6.94,1.63 l -6.67,0.06 v -6.41 m 3.84,-0.13 q 6.7,0 10.34,-2.93 3.64,-2.93 3.63,-8.88 0,-5.35 -3.5,-8.2 -3.5,-2.85 -9.7,-2.85 h -7.74 v 23 h 3.22"
         class="cls-3"
         inkscape:connector-curvature="0"
         style="fill:#ffffff" />
      <path
         id="path61"
         d="m 177.13,281 h -7.49 v -55.58 h 7.61 z"
         class="cls-3"
         inkscape:connector-curvature="0"
         style="fill:#ffffff" />
      <path
         id="path63"
         d="m 239.89,235.2 -4.39,-9.78 h 7.06 M 239.89,243 v 38 h -7.06 v -53.53 m 9.73,-2.05 15.44,32.8 5.57,12.7 v -45.5 h 7.05 V 281 h -9.86 l -16.18,-34.62 -4.67,-11.13"
         class="cls-3"
         inkscape:connector-curvature="0"
         style="fill:#ffffff" />
      <rect
         id="rect65"
         height="6.2399998"
         width="21.389999"
         y="250.07001"
         x="179.81"
         class="cls-3"
         style="fill:#ffffff" />
      <rect
         id="rect67"
         height="6.2399998"
         width="21.389999"
         y="274.70999"
         x="179.81"
         class="cls-3"
         style="fill:#ffffff" />
      <rect
         id="rect69"
         height="6.2399998"
         width="21.389999"
         y="225.42"
         x="179.81"
         class="cls-3"
         style="fill:#ffffff" />
    </g>
  </g>
</svg>
