<?xml version="1.0" encoding="UTF-8" standalone="no"?>
<svg
   xmlns:dc="http://purl.org/dc/elements/1.1/"
   xmlns:cc="http://creativecommons.org/ns#"
   xmlns:rdf="http://www.w3.org/1999/02/22-rdf-syntax-ns#"
   xmlns:svg="http://www.w3.org/2000/svg"
   xmlns="http://www.w3.org/2000/svg"
   xmlns:sodipodi="http://sodipodi.sourceforge.net/DTD/sodipodi-0.dtd"
   xmlns:inkscape="http://www.inkscape.org/namespaces/inkscape"
   id="Layer_1"
   data-name="Layer 1"
   viewBox="0 0 433.5264 57.099617"
   version="1.1"
   sodipodi:docname="text.svg"
   width="433.5264"
   height="57.099617"
   inkscape:version="0.92.4 5da689c313, 2019-01-14">
  <metadata
     id="metadata44">
    <rdf:RDF>
      <cc:Work
         rdf:about="">
        <dc:format>image/svg+xml</dc:format>
        <dc:type
           rdf:resource="http://purl.org/dc/dcmitype/StillImage" />
      </cc:Work>
    </rdf:RDF>
  </metadata>
  <sodipodi:namedview
     pagecolor="#ffffff"
     bordercolor="#666666"
     borderopacity="1"
     objecttolerance="10"
     gridtolerance="10"
     guidetolerance="10"
     inkscape:pageopacity="0"
     inkscape:pageshadow="2"
     inkscape:window-width="1067"
     inkscape:window-height="526"
     id="namedview42"
     showgrid="false"
     inkscape:zoom="0.472"
     inkscape:cx="216.77639"
     inkscape:cy="26.514025"
     inkscape:window-x="0"
     inkscape:window-y="56"
     inkscape:window-maximized="0"
     inkscape:current-layer="Layer_1" />
  <defs
     id="defs33">
    <linearGradient
       id="New_Gradient_Swatch_1"
       x1="299.57001"
       y1="248.35001"
       x2="466.76999"
       y2="248.35001"
       gradientUnits="userSpaceOnUse"
       gradientTransform="translate(-33.223613,-219.41441)">
      <stop
         offset="0"
         stop-color="#ffef26"
         id="stop2" />
      <stop
         offset="0"
         stop-color="#feeb26"
         id="stop4" />
      <stop
         offset=".03"
         stop-color="#f7ba28"
         id="stop6" />
      <stop
         offset=".05"
         stop-color="#f19029"
         id="stop8" />
      <stop
         offset=".07"
         stop-color="#ec6e2b"
         id="stop10" />
      <stop
         offset=".1"
         stop-color="#e8532c"
         id="stop12" />
      <stop
         offset=".13"
         stop-color="#e5402c"
         id="stop14" />
      <stop
         offset=".15"
         stop-color="#e4352d"
         id="stop16" />
      <stop
         offset=".18"
         stop-color="#e3312d"
         id="stop18" />
      <stop
         offset=".36"
         stop-color="#e6007e"
         id="stop20" />
      <stop
         offset=".52"
         stop-color="#662483"
         id="stop22" />
      <stop
         offset=".68"
         stop-color="#1d71b8"
         id="stop24" />
      <stop
         offset=".84"
         stop-color="#2fac66"
         id="stop26" />
      <stop
         offset="1"
         stop-color="#dedc00"
         id="stop28" />
    </linearGradient>
    <style
       id="style31">.cls-1{fill:#575756}.cls-2{fill:url(#New_Gradient_Swatch_1)}.cls-3{fill:#1d1d1b}</style>
  </defs>
  <path
     class="cls-1"
     d="m 275.77639,49.855593 h 22.51 v 6.45 h -28.76 l 6.25,-6.45 m -1.75,-2.73 -7.68,7.69 V 0.81559295 h 7.68 V 47.155593 m 90.81,-10.17 a 25,25 0 0 1 -1.3,8.3 16.57,16.57 0 0 1 -9.94,10.37 22.92,22.92 0 0 1 -8.34,1.42 25,25 0 0 1 -8.8,-1.36 15,15 0 0 1 -5.88,-3.84 15.18,15.18 0 0 1 -3.32,-6 27.33,27.33 0 0 1 -1,-7.78 V 0.78559295 h 7.52 V 37.585593 a 23.8,23.8 0 0 0 0.61,5.73 10,10 0 0 0 2,4.12 8.65,8.65 0 0 0 3.63,2.51 15.35,15.35 0 0 0 5.46,0.85 q 6,0 8.9,-3.48 2.9,-3.48 2.87,-9.82 V 0.78559295 h 7.56 z m 44.08,-0.51 -12,19.83 h -9.44 l 18.48,-28.37 -17,-27.15000005 h 9 l 11.14,18.32000005 v 17 m 3,0.44 v -17.32 l 11.29,-18.46000005 h 8.71 l -17,26.81000005 18.43,28.71 h -9.56 l -11.86,-19.7"
     id="path35"
     inkscape:connector-curvature="0"
     style="fill:#575756" />
  <path
     class="cls-2"
     d="m 275.77639,49.855593 h 22.51 v 6.45 h -28.76 l 6.25,-6.45 m -1.75,-2.73 -7.68,7.69 V 0.81559295 h 7.68 V 47.155593 m 90.81,-10.17 a 25,25 0 0 1 -1.3,8.3 16.57,16.57 0 0 1 -9.94,10.37 22.92,22.92 0 0 1 -8.34,1.42 25,25 0 0 1 -8.8,-1.36 15,15 0 0 1 -5.88,-3.84 15.18,15.18 0 0 1 -3.32,-6 27.33,27.33 0 0 1 -1,-7.78 V 0.78559295 h 7.52 V 37.585593 a 23.8,23.8 0 0 0 0.61,5.73 10,10 0 0 0 2,4.12 8.65,8.65 0 0 0 3.63,2.51 15.35,15.35 0 0 0 5.46,0.85 q 6,0 8.9,-3.48 2.9,-3.48 2.87,-9.82 V 0.78559295 h 7.56 z m 44.08,-0.51 -12,19.83 h -9.44 l 18.48,-28.37 -17,-27.15000005 h 9 l 11.14,18.32000005 v 17 m 3,0.44 v -17.32 l 11.29,-18.46000005 h 8.71 l -17,26.81000005 18.43,28.71 h -9.56 l -11.86,-19.7"
     id="path37"
     inkscape:connector-curvature="0"
     style="fill:url(#New_Gradient_Swatch_1)" />
  <path
     class="cls-3"
     d="m 43.076387,28.185593 a 42.26,42.26 0 0 1 -1.76,12.92 26.36,26.36 0 0 1 -4.76,9 18.7,18.7 0 0 1 -7,5.27 21.2,21.2 0 0 1 -8.47,1.72 21.23,21.23 0 0 1 -9.31,-1.95 17.23,17.23 0 0 1 -6.6099997,-5.56 25.45,25.45 0 0 1 -3.89,-8.9 50.24,50.24 0 0 1 -1.26999995,-11.83 42.27,42.27 0 0 1 1.76999995,-12.86 26,26 0 0 1 4.74,-9 18.76,18.76 0 0 1 6.9999997,-5.27 21.09,21.09 0 0 1 8.46,-1.72000005 20.94,20.94 0 0 1 9.32,1.95000005 17.74,17.74 0 0 1 6.56,5.63 25.49,25.49 0 0 1 3.92,8.83 49.27,49.27 0 0 1 1.3,11.77 z m -7.86,0.55 a 49.43,49.43 0 0 0 -0.74,-8.94 22.63,22.63 0 0 0 -2.4,-7 12.38,12.38 0 0 0 -4.3,-4.53 11.73,11.73 0 0 0 -6.31,-1.62 10.77,10.77 0 0 0 -6.14,1.73 13.27,13.27 0 0 0 -4.22,4.67 23.61,23.61 0 0 0 -2.4699997,6.92 42.18,42.18 0 0 0 -0.8,8.43 48.64,48.64 0 0 0 0.76,9 22.84,22.84 0 0 0 2.3999997,7 12.3,12.3 0 0 0 4.23,4.52 11.52,11.52 0 0 0 6.24,1.61 10.86,10.86 0 0 0 6.16,-1.72 13.39,13.39 0 0 0 4.27,-4.67 23.41,23.41 0 0 0 2.49,-6.9 42.87,42.87 0 0 0 0.83,-8.5 z m 41.78,1.33 v 26.24 h -7.56 V 0.78559295 h 15.64 a 33.51,33.51 0 0 1 7.9,0.92000005 19,19 0 0 1 6.65,2.95 14.75,14.75 0 0 1 4.560003,5.27 16.71,16.71 0 0 1 1.7,7.85 18.76,18.76 0 0 1 -1.27,6.74 16.78,16.78 0 0 1 -4,6 20.25,20.25 0 0 1 -6.840003,4.27 26.09,26.09 0 0 1 -6.94,1.63 h -6.67 v -6.37 m 3.84,-0.14 q 6.7,0 10.34,-2.93 3.64,-2.93 3.63,-8.88 c 0,-3.56 -1.17,-6.3 -3.5,-8.19 -2.33,-1.89 -5.6,-2.85 -9.79,-2.85 h -7.74 v 23 h 3.22 m 63.740003,26.25 h -7.49 V 0.78559295 h 7.61 z m 62.76,-45.72 -4.39,-9.77000005 h 7.06 m -2.67,17.55000005 v 38 h -7.06 v -53.53 m 9.73,-2.05000005 15.44,32.80000005 5.57,12.7 V 0.78559295 h 7.05 V 56.305593 h -9.86 l -16.2,-34.62 -4.67,-11.1 m -60.08,14.85 h 21.39 v 6.24 h -21.39 z m 0,24.64 h 21.39 v 6.24 h -21.39 z m 0,-49.29000005 h 21.39 V 7.025593 h -21.39 z"
     id="path39"
     inkscape:connector-curvature="0"
     style="fill:#1d1d1b" />
</svg>
