<svg id="Layer_1" data-name="Layer 1" xmlns="http://www.w3.org/2000/svg" viewBox="0 0 500 500"><defs><linearGradient id="New_Gradient_Swatch_1" x1="299.57" y1="248.35" x2="466.77" y2="248.35" gradientUnits="userSpaceOnUse"><stop offset="0" stop-color="#ffef26"/><stop offset="0" stop-color="#feeb26"/><stop offset=".03" stop-color="#f7ba28"/><stop offset=".05" stop-color="#f19029"/><stop offset=".07" stop-color="#ec6e2b"/><stop offset=".1" stop-color="#e8532c"/><stop offset=".13" stop-color="#e5402c"/><stop offset=".15" stop-color="#e4352d"/><stop offset=".18" stop-color="#e3312d"/><stop offset=".36" stop-color="#e6007e"/><stop offset=".52" stop-color="#662483"/><stop offset=".68" stop-color="#1d71b8"/><stop offset=".84" stop-color="#2fac66"/><stop offset="1" stop-color="#dedc00"/></linearGradient><style>.cls-1{fill:#575756}.cls-2{fill:url(#New_Gradient_Swatch_1)}.cls-3{fill:#1d1d1b}</style></defs><path class="cls-1" d="M309 269.27h22.51v6.45h-28.76l6.25-6.45m-1.75-2.73l-7.68 7.69v-54h7.68v46.34M398.06 256.4a25 25 0 01-1.3 8.3 16.57 16.57 0 01-9.94 10.37 22.92 22.92 0 01-8.34 1.42 25 25 0 01-8.8-1.36 15 15 0 01-5.88-3.84 15.18 15.18 0 01-3.32-6 27.33 27.33 0 01-1-7.78V220.2H367V257a23.8 23.8 0 00.61 5.73 10 10 0 002 4.12 8.65 8.65 0 003.63 2.51 15.35 15.35 0 005.46.85q6 0 8.9-3.48t2.87-9.82V220.2h7.56zM442.14 255.89l-12 19.83h-9.44l18.48-28.37-17-27.15h9l11.14 18.32v17m3 .44v-17.32l11.29-18.46h8.71l-17 26.81 18.43 28.71h-9.56L445.33 256"/><path class="cls-2" d="M309 269.27h22.51v6.45h-28.76l6.25-6.45m-1.75-2.73l-7.68 7.69v-54h7.68v46.34M398.06 256.4a25 25 0 01-1.3 8.3 16.57 16.57 0 01-9.94 10.37 22.92 22.92 0 01-8.34 1.42 25 25 0 01-8.8-1.36 15 15 0 01-5.88-3.84 15.18 15.18 0 01-3.32-6 27.33 27.33 0 01-1-7.78V220.2H367V257a23.8 23.8 0 00.61 5.73 10 10 0 002 4.12 8.65 8.65 0 003.63 2.51 15.35 15.35 0 005.46.85q6 0 8.9-3.48t2.87-9.82V220.2h7.56zM442.14 255.89l-12 19.83h-9.44l18.48-28.37-17-27.15h9l11.14 18.32v17m3 .44v-17.32l11.29-18.46h8.71l-17 26.81 18.43 28.71h-9.56L445.33 256"/><path class="cls-3" d="M76.3 247.6a42.26 42.26 0 01-1.76 12.92 26.36 26.36 0 01-4.76 9 18.7 18.7 0 01-7 5.27 21.2 21.2 0 01-8.47 1.72 21.23 21.23 0 01-9.31-1.95 17.23 17.23 0 01-6.61-5.56 25.45 25.45 0 01-3.89-8.9 50.24 50.24 0 01-1.27-11.83A42.27 42.27 0 0135 235.41a26 26 0 014.74-9 18.76 18.76 0 017-5.27 21.09 21.09 0 018.46-1.72 20.94 20.94 0 019.32 1.95 17.74 17.74 0 016.56 5.63 25.49 25.49 0 013.92 8.83 49.27 49.27 0 011.3 11.77zm-7.86.55a49.43 49.43 0 00-.74-8.94 22.63 22.63 0 00-2.4-7 12.38 12.38 0 00-4.3-4.53 11.73 11.73 0 00-6.31-1.62 10.77 10.77 0 00-6.14 1.73 13.27 13.27 0 00-4.22 4.67 23.61 23.61 0 00-2.47 6.92 42.18 42.18 0 00-.8 8.43 48.64 48.64 0 00.76 9 22.84 22.84 0 002.4 7 12.3 12.3 0 004.23 4.52 11.52 11.52 0 006.24 1.61 10.86 10.86 0 006.16-1.72 13.39 13.39 0 004.27-4.67 23.41 23.41 0 002.49-6.9 42.87 42.87 0 00.83-8.5zM110.22 249.48v26.24h-7.56V220.2h15.64a33.51 33.51 0 017.9.92 19 19 0 016.65 2.95 14.75 14.75 0 014.56 5.27 16.71 16.71 0 011.7 7.85 18.76 18.76 0 01-1.27 6.74 16.78 16.78 0 01-4 6 20.25 20.25 0 01-6.84 4.27 26.09 26.09 0 01-6.94 1.63h-6.67v-6.37m3.84-.14q6.7 0 10.34-2.93t3.63-8.88c0-3.56-1.17-6.3-3.5-8.19s-5.6-2.85-9.79-2.85h-7.74v23h3.22M177.13 275.72h-7.49V220.2h7.61zM239.89 230l-4.39-9.77h7.06m-2.67 17.55v38h-7.06v-53.53m9.73-2.05L258 253l5.57 12.7v-45.5h7.05v55.52h-9.86l-16.2-34.62-4.67-11.1M179.81 244.85h21.39v6.24h-21.39zM179.81 269.49h21.39v6.24h-21.39zM179.81 220.2h21.39v6.24h-21.39z"/></svg>